<?xml version='1.0' encoding='utf-8'?>
<svg xmlns="http://www.w3.org/2000/svg" width="1080" height="1080" viewBox="0 0 1080 1080" fill="none">
<path d="M283.625 798.735C309.284 802.214 334.797 802.794 334.797 828.307C334.797 852.661 314.212 862.663 276.812 862.663C236.657 862.663 219.697 849.762 219.697 827.582H250.284C250.284 838.889 264.49 842.223 278.841 842.223C294.497 842.223 303.195 839.034 303.195 832.221C303.195 823.813 290.583 824.248 262.896 819.464C237.382 815.115 222.161 810.042 222.161 789.602C222.161 769.017 238.542 756.985 275.072 756.985C315.227 756.985 328.274 771.772 328.274 790.037H298.701C298.701 783.224 290.583 777.425 274.783 777.425C257.532 777.425 250.864 781.049 250.864 787.428C250.864 795.98 266.375 796.56 283.625 798.735ZM343.183 759.16H372.03V860.634H343.183V759.16ZM505.135 801.634C509.629 843.673 482.231 862.663 446.28 862.663C413.809 862.663 381.917 848.602 381.917 809.897C381.917 771.047 414.533 756.985 443.816 756.985C470.199 756.985 496.147 768.002 502.816 792.936H473.098C468.894 783.369 458.312 777.425 443.816 777.425C422.216 777.425 411.344 789.892 411.344 809.897C411.344 829.902 424.101 842.223 446.28 842.223C463.386 842.223 472.663 834.251 475.563 823.668H443.671V801.634H505.135ZM597.901 759.16H626.748V860.634H595.871L544.409 793.081V860.634H515.562V759.16H546.439L597.901 826.712V759.16ZM729.901 860.634L722.218 842.079H670.321L662.493 860.634H632.196L679.164 759.16H713.375L760.198 860.634H729.901ZM679.019 821.494H713.52L696.27 780.614L679.019 821.494ZM860.321 840.049V860.634H765.66V759.16H794.507V840.049H860.321Z" fill="url(#paint0_linear_40003719_242)"/>
<ellipse opacity="0.1" cx="547.206" cy="477.972" rx="319.779" ry="124.229" transform="rotate(-23.8979 547.206 477.972)" fill="url(#paint1_linear_40003719_242)"/>
<path d="M709.238 519.846C744.911 495.778 823.478 437.197 852.36 395.42C840.434 424.432 788.536 483.099 709.238 519.846Z" fill="url(#paint2_linear_40003719_242)"/>
<path d="M659.544 287.956C659.544 287.956 707.833 268.465 761.829 260.383C820.777 252.621 850.206 270.599 857.443 291.004C864.68 311.409 858.3 349.374 817.231 396.065C776.163 442.756 698.065 496.223 644.13 524.136C644.13 524.136 732.704 460.526 759.137 435.123C785.57 409.72 840.798 354.837 826.092 307.629C826.092 307.629 817.644 272.874 754.629 275.42C692.064 276.913 672.623 285.376 659.544 287.956Z" fill="url(#paint3_linear_40003719_242)"/>
<path d="M412.407 582.598C412.407 582.598 363.56 603.585 311.704 611.813C259.848 620.04 229.327 600.218 222.394 579.588C215.46 558.958 222.769 521.914 262.226 474.664C301.682 427.415 377.222 372.856 427.325 343.655C427.325 343.655 342.241 408.043 316.852 433.758C291.464 459.473 238.403 515.01 252.499 562.761C252.499 562.761 261.027 596.189 321.102 594.648C381.176 593.107 399.847 585.188 412.407 582.598Z" fill="url(#paint4_linear_40003719_242)"/>
<g filter="url(#filter0_f_40003719_242)">
<path d="M630.824 177.954L586.331 402.641L722.511 366.151L720.651 368.37C720.623 368.419 720.592 368.466 720.556 368.51L449.229 692.431L449.243 692.392L449.205 692.438L486.57 503.644L393.991 511.014L525.509 476.265H525.511L532.186 457.341L360.526 503.323C360.491 503.332 360.455 503.336 360.419 503.341L357.555 504.11L630.848 177.836L630.842 177.864L630.866 177.835L630.824 177.954Z" fill="#11141C"/>
</g>
<path d="M586.331 402.642L722.511 366.151L448.962 692.636L486.552 503.646L393.991 511.014L525.509 476.265L525.508 476.266H525.511L532.196 457.312L357.555 504.109L630.766 177.706L586.331 402.642Z" fill="#050505"/>
<path d="M586.331 402.642L722.511 366.151L448.962 692.636L486.552 503.646L393.991 511.014L525.509 476.265L525.508 476.266H525.511L532.196 457.312L357.555 504.109L630.766 177.706L586.331 402.642Z" fill="url(#paint5_linear_40003719_242)"/>
<path d="M532.321 457.297L448.947 692.651L722.515 366.157L547.693 412.982L630.771 177.698L357.189 504.205L532.321 457.297Z" fill="url(#paint6_linear_40003719_242)"/>
<defs>
<filter id="filter0_f_40003719_242" x="260.851" y="81.1313" width="558.365" height="708.01">
<feFlood flood-opacity="0" result="BackgroundImageFix"/>
<feBlend mode="normal" in="SourceGraphic" in2="BackgroundImageFix" result="shape"/>
<feGaussianBlur stdDeviation="48.3521" result="effect1_foregroundBlur_40003719_242"/>
</filter>
<linearGradient id="paint0_linear_40003719_242" x1="689.633" y1="633.108" x2="267.53" y2="915.978" gradientUnits="userSpaceOnUse">
<stop stop-color="#ECF1F0"/>
<stop offset="1" stop-color="#BABDBC"/>
</linearGradient>
<linearGradient id="paint1_linear_40003719_242" x1="815.611" y1="401.895" x2="265.824" y2="548.586" gradientUnits="userSpaceOnUse">
<stop stop-color="#39EE96"/>
<stop offset="1" stop-color="#1A4D3D"/>
</linearGradient>
<linearGradient id="paint2_linear_40003719_242" x1="819.159" y1="252.298" x2="751.914" y2="519.853" gradientUnits="userSpaceOnUse">
<stop stop-color="#39EE96"/>
<stop offset="1" stop-color="#173E35"/>
</linearGradient>
<linearGradient id="paint3_linear_40003719_242" x1="789.337" y1="167.231" x2="714.258" y2="526.118" gradientUnits="userSpaceOnUse">
<stop stop-color="#39EE96"/>
<stop offset="1" stop-color="#173E35"/>
</linearGradient>
<linearGradient id="paint4_linear_40003719_242" x1="429.071" y1="164.316" x2="255.094" y2="610.665" gradientUnits="userSpaceOnUse">
<stop stop-color="#39EE96"/>
<stop offset="1" stop-color="#173E35"/>
</linearGradient>
<linearGradient id="paint5_linear_40003719_242" x1="629.331" y1="187.013" x2="458.751" y2="690.078" gradientUnits="userSpaceOnUse">
<stop stop-color="#21684C"/>
<stop offset="1" stop-color="#152729"/>
</linearGradient>
<linearGradient id="paint6_linear_40003719_242" x1="625.747" y1="195.853" x2="457.855" y2="689.87" gradientUnits="userSpaceOnUse">
<stop offset="0.24643" stop-color="#39EE96"/>
<stop offset="1" stop-color="#173E35"/>
</linearGradient>
</defs>
</svg>