<svg xmlns="http://www.w3.org/2000/svg" viewBox="210 750 660 124" fill="none" aria-label="SIGNAL">
  <path d="M283.625 798.735C309.284 802.214 334.797 802.794 334.797 828.307C334.797 852.661 314.212 862.663 276.812 862.663C236.657 862.663 219.697 849.762 219.697 827.582H250.284C250.284 838.889 264.49 842.223 278.841 842.223C294.497 842.223 303.195 839.034 303.195 832.221C303.195 823.813 290.583 824.248 262.896 819.464C237.382 815.115 222.161 810.042 222.161 789.602C222.161 769.017 238.542 756.985 275.072 756.985C315.227 756.985 328.274 771.772 328.274 790.037H298.701C298.701 783.224 290.583 777.425 274.783 777.425C257.532 777.425 250.864 781.049 250.864 787.428C250.864 795.98 266.375 796.56 283.625 798.735ZM343.183 759.16H372.03V860.634H343.183V759.16ZM505.135 801.634C509.629 843.673 482.231 862.663 446.28 862.663C413.809 862.663 381.917 848.602 381.917 809.897C381.917 771.047 414.533 756.985 443.816 756.985C470.199 756.985 496.147 768.002 502.816 792.936H473.098C468.894 783.369 458.312 777.425 443.816 777.425C422.216 777.425 411.344 789.892 411.344 809.897C411.344 829.902 424.101 842.223 446.28 842.223C463.386 842.223 472.663 834.251 475.563 823.668H443.671V801.634H505.135ZM597.901 759.16H626.748V860.634H595.871L544.409 793.081V860.634H515.562V759.16H546.439L597.901 826.712V759.16ZM729.901 860.634L722.218 842.079H670.321L662.493 860.634H632.196L679.164 759.16H713.375L760.198 860.634H729.901ZM679.019 821.494H713.52L696.27 780.614L679.019 821.494ZM860.321 840.049V860.634H765.66V759.16H794.507V840.049H860.321Z" fill="url(#wordmark)"/>
  <defs>
    <linearGradient id="wordmark" x1="689.633" y1="633.108" x2="267.53" y2="915.978" gradientUnits="userSpaceOnUse">
      <stop stop-color="#ECF1F0"/>
      <stop offset="1" stop-color="#BABDBC"/>
    </linearGradient>
  </defs>
</svg>
